<?xml version="1.0" encoding="utf-8"?>
<!-- Generator: Adobe Illustrator 16.0.0, SVG Export Plug-In . SVG Version: 6.00 Build 0)  -->
<!DOCTYPE svg PUBLIC "-//W3C//DTD SVG 1.1//EN" "http://www.w3.org/Graphics/SVG/1.1/DTD/svg11.dtd">
<svg version="1.1" id="Layer_1" xmlns="http://www.w3.org/2000/svg" xmlns:xlink="http://www.w3.org/1999/xlink" x="0px" y="0px"
	 width="24px" height="24px" viewBox="0 0 24 24" enable-background="new 0 0 24 24" xml:space="preserve">
<g>
	<g>
		<path d="M19.7,23.5H4.3c-2.1,0-3.8-1.7-3.8-3.8V4.3c0-2.1,1.7-3.8,3.8-3.8h15.3c2.1,0,3.8,1.7,3.8,3.8v15.3
			C23.5,21.8,21.8,23.5,19.7,23.5z M4.3,1.5c-1.6,0-2.8,1.3-2.8,2.8v15.3c0,1.6,1.3,2.8,2.8,2.8h15.3c1.6,0,2.8-1.3,2.8-2.8V4.3
			c0-1.6-1.3-2.8-2.8-2.8H4.3z"/>
	</g>
	<g>
		<g>
			<path d="M13.9,15.8h-3.8c-0.2,0-0.3-0.1-0.4-0.2l-1.9-3.3c-0.1-0.2-0.1-0.3,0-0.5l1.9-3.3c0.1-0.2,0.3-0.2,0.4-0.2h3.8
				c0.2,0,0.3,0.1,0.4,0.2l1.9,3.3c0.1,0.2,0.1,0.3,0,0.5l-1.9,3.3C14.2,15.7,14.1,15.8,13.9,15.8z M10.4,14.8h3.2l1.6-2.8l-1.6-2.8
				h-3.2L8.8,12L10.4,14.8z"/>
		</g>
		<g>
			<g>
				<path d="M18.7,9.2h-4.9c-0.3,0-0.5-0.2-0.5-0.5s0.2-0.5,0.5-0.5h4.9c0.3,0,0.5,0.2,0.5,0.5S19,9.2,18.7,9.2z"/>
			</g>
			<g>
				<path d="M10.2,15.8H5.3c-0.3,0-0.5-0.2-0.5-0.5s0.2-0.5,0.5-0.5h4.9c0.3,0,0.5,0.2,0.5,0.5S10.4,15.8,10.2,15.8z"/>
			</g>
		</g>
		<g>
			<g>
				<path d="M10.1,9.3c-0.1,0-0.2,0-0.2-0.1C9.6,9.1,9.5,8.8,9.7,8.5l2.4-4.2c0.1-0.2,0.4-0.3,0.7-0.2s0.3,0.4,0.2,0.7L10.5,9
					C10.4,9.2,10.3,9.3,10.1,9.3z"/>
			</g>
			<g>
				<path d="M11.5,19.9c-0.1,0-0.2,0-0.2-0.1c-0.2-0.1-0.3-0.4-0.2-0.7l2.4-4.2c0.1-0.2,0.4-0.3,0.7-0.2c0.2,0.1,0.3,0.4,0.2,0.7
					l-2.4,4.2C11.8,19.8,11.6,19.9,11.5,19.9z"/>
			</g>
		</g>
		<g>
			<g>
				<path d="M8.3,12.5c-0.2,0-0.3-0.1-0.4-0.2L5.4,8.1C5.3,7.8,5.3,7.5,5.6,7.4c0.2-0.1,0.5-0.1,0.7,0.2l2.4,4.2
					c0.1,0.2,0.1,0.5-0.2,0.7C8.4,12.5,8.3,12.5,8.3,12.5z"/>
			</g>
			<g>
				<path d="M18.2,16.7c-0.2,0-0.3-0.1-0.4-0.2l-2.4-4.2c-0.1-0.2-0.1-0.5,0.2-0.7c0.2-0.1,0.5-0.1,0.7,0.2l2.4,4.2
					c0.1,0.2,0.1,0.5-0.2,0.7C18.3,16.7,18.3,16.7,18.2,16.7z"/>
			</g>
		</g>
		<g>
			<path d="M12,20.2c-4.5,0-8.2-3.7-8.2-8.2S7.5,3.8,12,3.8c4.5,0,8.2,3.7,8.2,8.2S16.5,20.2,12,20.2z M12,4.8C8,4.8,4.8,8,4.8,12
				S8,19.2,12,19.2c4,0,7.2-3.2,7.2-7.2S16,4.8,12,4.8z"/>
		</g>
	</g>
</g>
</svg>
